<mxfile host="app.diagrams.net" modified="2023-11-01T09:54:03.460Z" agent="Mozilla/5.0 (Windows NT 10.0; Win64; x64) AppleWebKit/537.36 (KHTML, like Gecko) Chrome/118.0.0.0 Safari/537.36 Edg/118.0.2088.76" etag="fWCI1A3od6Pb6lZ9JY-l" version="21.6.8" type="github">
  <diagram name="第 1 页" id="M7-LkV-x4vHUSKC98IDP">
    <mxGraphModel dx="1101" dy="783" grid="1" gridSize="10" guides="1" tooltips="1" connect="1" arrows="1" fold="1" page="1" pageScale="1" pageWidth="827" pageHeight="1169" math="0" shadow="0">
      <root>
        <mxCell id="0" />
        <mxCell id="1" parent="0" />
      </root>
    </mxGraphModel>
  </diagram>
</mxfile>
